<svg width="20" height="20" viewBox="0 0 20 20" fill="none" xmlns="http://www.w3.org/2000/svg">
<g clip-path="url(#clip0_2336_300)">
<path d="M10 0C4.47734 0 0 4.47734 0 10C0 15.5227 4.47734 20 10 20C15.5227 20 20 15.5227 20 10C20 4.47734 15.5227 0 10 0ZM11.2023 17.602V12.2246H12.9953L13.3367 10H11.2023V8.55664C11.2023 7.94805 11.5004 7.35469 12.4563 7.35469H13.427V5.46094C13.427 5.46094 12.5461 5.31055 11.7043 5.31055C9.94648 5.31055 8.79766 6.37617 8.79766 8.30469V10H6.84375V12.2246H8.79766V17.602C5.11875 17.0246 2.30469 13.841 2.30469 10C2.30469 5.75 5.75 2.30469 10 2.30469C14.25 2.30469 17.6953 5.75 17.6953 10C17.6953 13.841 14.8812 17.0246 11.2023 17.602Z" fill="white"/>
</g>
<defs>
<clipPath id="clip0_2336_300">
<rect width="20" height="20" fill="white"/>
</clipPath>
</defs>
</svg>
