<svg width="48" height="48" viewBox="0 0 48 48" fill="none" xmlns="http://www.w3.org/2000/svg">
<path d="M33.24 5.98007C33.0078 5.74726 32.7319 5.56254 32.4282 5.43651C32.1244 5.31048 31.7988 5.24561 31.47 5.24561C31.1412 5.24561 30.8156 5.31048 30.5118 5.43651C30.2081 5.56254 29.9322 5.74726 29.7 5.98007L13.08 22.6001C12.8946 22.7851 12.7475 23.0049 12.6471 23.2468C12.5468 23.4888 12.4951 23.7481 12.4951 24.0101C12.4951 24.272 12.5468 24.5314 12.6471 24.7733C12.7475 25.0153 12.8946 25.235 13.08 25.4201L29.7 42.0401C30.68 43.0201 32.26 43.0201 33.24 42.0401C34.22 41.0601 34.22 39.4801 33.24 38.5001L18.76 24.0001L33.26 9.50007C34.22 8.54007 34.22 6.94007 33.24 5.98007Z" fill="white"/>
</svg>
