<svg width="20" height="20" viewBox="0 0 20 20" fill="none" xmlns="http://www.w3.org/2000/svg">
<g clip-path="url(#clip0_2336_303)">
<path d="M15.2782 7.37978C15.2493 6.74775 15.1438 6.40439 15.0552 6.17588C14.9376 5.87314 14.797 5.65713 14.57 5.43018C14.3431 5.20322 14.1271 5.0626 13.8243 4.94502C13.5958 4.85635 13.2524 4.75088 12.6204 4.72197C11.9364 4.69072 11.7313 4.68408 10.0001 4.68408C8.26885 4.68408 8.06377 4.69072 7.37978 4.72197C6.74775 4.75088 6.40439 4.85635 6.17588 4.94502C5.87314 5.0626 5.65713 5.20322 5.43018 5.43018C5.20322 5.65713 5.0626 5.87314 4.94502 6.17588C4.85635 6.40439 4.75088 6.74775 4.72197 7.37978C4.69072 8.06377 4.68408 8.26885 4.68408 10.0001C4.68408 11.7313 4.69072 11.9364 4.72197 12.6204C4.75088 13.2524 4.85635 13.5958 4.94502 13.8243C5.0626 14.1271 5.20322 14.3431 5.43018 14.57C5.65713 14.797 5.87314 14.9376 6.17588 15.0552C6.40439 15.1438 6.74775 15.2493 7.37978 15.2782C8.06338 15.3095 8.26846 15.3161 10.0001 15.3161C11.7317 15.3161 11.9368 15.3095 12.6204 15.2782C13.2524 15.2493 13.5958 15.1438 13.8243 15.0552C14.1271 14.9376 14.3431 14.797 14.57 14.57C14.797 14.3431 14.9376 14.1271 15.0552 13.8243C15.1438 13.5958 15.2493 13.2524 15.2782 12.6204C15.3095 11.9364 15.3161 11.7313 15.3161 10.0001C15.3161 8.26885 15.3095 8.06377 15.2782 7.37978ZM10.0001 13.3298C8.16103 13.3298 6.67041 11.8392 6.67041 10.0001C6.67041 8.16103 8.16103 6.67041 10.0001 6.67041C11.8392 6.67041 13.3298 8.16103 13.3298 10.0001C13.3298 11.8392 11.8392 13.3298 10.0001 13.3298ZM13.4614 7.31689C13.0317 7.31689 12.6833 6.96846 12.6833 6.53877C12.6833 6.10908 13.0317 5.76064 13.4614 5.76064C13.8911 5.76064 14.2396 6.10908 14.2396 6.53877C14.2396 6.96846 13.8911 7.31689 13.4614 7.31689ZM10.0001 7.83877C8.80635 7.83877 7.83877 8.80635 7.83877 10.0001C7.83877 11.1938 8.80635 12.1614 10.0001 12.1614C11.1938 12.1614 12.1614 11.1938 12.1614 10.0001C12.1614 8.80635 11.1938 7.83877 10.0001 7.83877Z" fill="white"/>
<path d="M10 0C4.47734 0 0 4.47734 0 10C0 15.5227 4.47734 20 10 20C15.5227 20 20 15.5227 20 10C20 4.47734 15.5227 0 10 0ZM16.4453 12.6734C16.4141 13.3637 16.3043 13.8352 16.1441 14.2477C15.9781 14.6738 15.7566 15.0355 15.3961 15.3961C15.0355 15.7566 14.6738 15.9781 14.2477 16.1441C13.8352 16.3043 13.3637 16.4141 12.6734 16.4453C11.982 16.477 11.7609 16.4844 10 16.4844C8.23906 16.4844 8.01797 16.477 7.32656 16.4453C6.63633 16.4141 6.16484 16.3043 5.75234 16.1441C5.32617 15.9781 4.96445 15.7566 4.60391 15.3961C4.24336 15.0355 4.02187 14.6738 3.85586 14.2477C3.6957 13.8352 3.58594 13.3637 3.55469 12.6734C3.52305 11.982 3.51562 11.7609 3.51562 10C3.51562 8.23906 3.52305 8.01797 3.55469 7.32656C3.58594 6.63633 3.6957 6.16484 3.85586 5.75234C4.02187 5.32617 4.24336 4.96445 4.60391 4.60391C4.96445 4.24336 5.32617 4.02187 5.75234 3.85586C6.16484 3.6957 6.63633 3.58594 7.32656 3.55469C8.01797 3.52305 8.23906 3.51562 10 3.51562C11.7609 3.51562 11.982 3.52305 12.6734 3.55469C13.3637 3.58594 13.8352 3.6957 14.2477 3.85586C14.6738 4.02187 15.0355 4.24336 15.3961 4.60391C15.7566 4.96445 15.9781 5.32617 16.1441 5.75234C16.3043 6.16484 16.4141 6.63633 16.4453 7.32656C16.477 8.01797 16.4844 8.23906 16.4844 10C16.4844 11.7609 16.477 11.982 16.4453 12.6734Z" fill="white"/>
</g>
<defs>
<clipPath id="clip0_2336_303">
<rect width="20" height="20" fill="white"/>
</clipPath>
</defs>
</svg>
