<svg width="48" height="48" viewBox="0 0 48 48" fill="none" xmlns="http://www.w3.org/2000/svg">
<path d="M10.8459 21.992H37.1539L32.0799 16.92C31.7049 16.5447 31.4943 16.0358 31.4945 15.5053C31.4946 15.2426 31.5465 14.9825 31.6471 14.7398C31.7477 14.4972 31.8951 14.2767 32.0809 14.091C32.2668 13.9053 32.4873 13.758 32.7301 13.6576C32.9728 13.5571 33.2329 13.5055 33.4956 13.5056C34.0262 13.5058 34.5349 13.7167 34.9099 14.092L43.3939 22.578C43.7689 22.9531 43.9795 23.4617 43.9795 23.992C43.9795 24.5223 43.7689 25.0309 43.3939 25.406L34.9099 33.89C34.7242 34.0758 34.5038 34.2232 34.2611 34.3239C34.0184 34.4245 33.7583 34.4763 33.4956 34.4764C33.2329 34.4765 32.9728 34.4248 32.7301 34.3244C32.4873 34.224 32.2668 34.0767 32.0809 33.891C31.8951 33.7053 31.7477 33.4848 31.6471 33.2422C31.5465 32.9995 31.4946 32.7394 31.4945 32.4767C31.4943 31.9462 31.7049 31.4373 32.0799 31.062L37.1519 25.992H10.8459L15.9199 31.06C16.1056 31.2458 16.2529 31.4664 16.3533 31.7091C16.4538 31.9519 16.5054 32.212 16.5053 32.4747C16.5053 32.7374 16.4534 32.9975 16.3528 33.2402C16.2522 33.4828 16.1048 33.7033 15.9189 33.889C15.7331 34.0747 15.5125 34.222 15.2698 34.3224C15.0271 34.4228 14.7669 34.4745 14.5042 34.4744C14.2415 34.4743 13.9814 34.4225 13.7388 34.3219C13.4961 34.2212 13.2756 34.0738 13.0899 33.888L4.60394 25.406C4.41757 25.2207 4.26967 25.0004 4.16875 24.7577C4.06782 24.515 4.01587 24.2548 4.01587 23.992C4.01587 23.7292 4.06782 23.469 4.16875 23.2263C4.26967 22.9836 4.41757 22.7633 4.60394 22.578L13.0879 14.092C13.463 13.7164 13.9718 13.5053 14.5025 13.5049C15.0333 13.5045 15.5424 13.715 15.9179 14.09C16.2935 14.465 16.5047 14.9739 16.5051 15.5046C16.5054 16.0353 16.295 16.5444 15.9199 16.92L10.8459 21.992Z" fill="white"/>
</svg>
