<svg width="20" height="20" viewBox="0 0 20 20" fill="none" xmlns="http://www.w3.org/2000/svg">
<g clip-path="url(#clip0_2336_311)">
<path d="M8.54834 7.88965L12.2581 10.0002L8.54834 12.1107V7.88965Z" fill="white"/>
<path d="M10 0C4.47734 0 0 4.47734 0 10C0 15.5227 4.47734 20 10 20C15.5227 20 20 15.5227 20 10C20 4.47734 15.5227 0 10 0ZM16.8 13.4387C16.6371 14.0531 16.1559 14.5371 15.5453 14.7016C14.4383 15 10 15 10 15C10 15 5.56172 15 4.45469 14.7016C3.84414 14.5371 3.36289 14.0531 3.2 13.4387C2.90312 12.3242 2.90312 10 2.90312 10C2.90312 10 2.90312 7.67578 3.2 6.56133C3.36289 5.94688 3.84414 5.46289 4.45469 5.29844C5.56172 5 10 5 10 5C10 5 14.4383 5 15.5453 5.29844C16.1559 5.46289 16.6371 5.94688 16.8 6.56133C17.0969 7.67578 17.0969 10 17.0969 10C17.0969 10 17.0969 12.3242 16.8 13.4387Z" fill="white"/>
</g>
<defs>
<clipPath id="clip0_2336_311">
<rect width="20" height="20" fill="white"/>
</clipPath>
</defs>
</svg>
