<svg width="159" height="159" viewBox="0 0 159 159" fill="none" xmlns="http://www.w3.org/2000/svg">
<path d="M159 79.5C159 123.407 123.407 159 79.5 159C35.5928 159 0 123.407 0 79.5C0 35.5928 35.5928 0 79.5 0C123.407 0 159 35.5928 159 79.5Z" fill="url(#paint0_linear_2372_162)"/>
<path d="M45.2156 64.2627C41.4485 64.2627 37.766 63.1456 34.6338 61.0527C31.5015 58.9598 29.0602 55.9851 27.6186 52.5048C26.177 49.0244 25.7998 45.1947 26.5347 41.5C27.2697 37.8052 29.0837 34.4114 31.7475 31.7477C34.4112 29.0839 37.805 27.2699 41.4998 26.5349C45.1945 25.8 49.0242 26.1772 52.5046 27.6188C55.9849 29.0604 58.9596 31.5017 61.0525 34.634C63.1454 37.7662 64.2625 41.4487 64.2625 45.2158H56.6438C56.6438 42.9556 55.9735 40.746 54.7178 38.8667C53.462 36.9874 51.6772 35.5226 49.589 34.6576C47.5008 33.7927 45.203 33.5663 42.9861 34.0073C40.7693 34.4482 38.733 35.5367 37.1347 37.1349C35.5365 38.7332 34.4481 40.7695 34.0071 42.9863C33.5661 45.2032 33.7925 47.501 34.6574 49.5892C35.5224 51.6774 36.9872 53.4622 38.8665 54.718C40.7458 55.9737 42.9554 56.644 45.2156 56.644V64.2627ZM113.784 64.2627V56.644C116.045 56.644 118.254 55.9737 120.134 54.718C122.013 53.4622 123.478 51.6774 124.343 49.5892C125.208 47.501 125.434 45.2032 124.993 42.9863C124.552 40.7695 123.464 38.7332 121.865 37.1349C120.267 35.5367 118.231 34.4482 116.014 34.0073C113.797 33.5663 111.499 33.7927 109.411 34.6576C107.323 35.5226 105.538 36.9874 104.282 38.8667C103.027 40.746 102.356 42.9556 102.356 45.2158H94.7375C94.7375 41.4487 95.8546 37.7662 97.9475 34.634C100.04 31.5017 103.015 29.0604 106.495 27.6188C109.976 26.1772 113.806 25.8 117.5 26.5349C121.195 27.2699 124.589 29.0839 127.253 31.7477C129.916 34.4114 131.73 37.8052 132.465 41.5C133.2 45.1947 132.823 49.0244 131.381 52.5048C129.94 55.9851 127.498 58.9598 124.366 61.0527C121.234 63.1456 117.551 64.2627 113.784 64.2627ZM45.2156 132.831C40.1641 132.831 35.3194 130.825 31.7475 127.253C28.1755 123.681 26.1688 118.836 26.1688 113.785C26.1688 108.733 28.1755 103.888 31.7475 100.316C35.3194 96.7444 40.1641 94.7377 45.2156 94.7377V102.356C42.9554 102.356 40.7458 103.027 38.8665 104.282C36.9872 105.538 35.5224 107.323 34.6574 109.411C33.7925 111.499 33.5661 113.797 34.0071 116.014C34.4481 118.231 35.5365 120.267 37.1347 121.865C38.733 123.464 40.7693 124.552 42.9861 124.993C45.203 125.434 47.5008 125.208 49.589 124.343C51.6772 123.478 53.462 122.013 54.7178 120.134C55.9735 118.254 56.6438 116.045 56.6438 113.785H64.2625C64.2565 118.834 62.2478 123.675 58.6771 127.246C55.1065 130.817 50.2653 132.825 45.2156 132.831ZM113.784 132.831C108.735 132.825 103.894 130.817 100.323 127.246C96.7522 123.675 94.7436 118.834 94.7375 113.785H102.356C102.356 116.045 103.027 118.254 104.282 120.134C105.538 122.013 107.323 123.478 109.411 124.343C111.499 125.208 113.797 125.434 116.014 124.993C118.231 124.552 120.267 123.464 121.865 121.865C123.464 120.267 124.552 118.231 124.993 116.014C125.434 113.797 125.208 111.499 124.343 109.411C123.478 107.323 122.013 105.538 120.134 104.282C118.254 103.027 116.045 102.356 113.784 102.356V94.7377C118.836 94.7377 123.681 96.7444 127.253 100.316C130.825 103.888 132.831 108.733 132.831 113.785C132.831 118.836 130.825 123.681 127.253 127.253C123.681 130.825 118.836 132.831 113.784 132.831Z" fill="white"/>
<path d="M94.7375 89.3515V69.6494L116.478 47.9093C116.841 47.5579 117.132 47.1375 117.331 46.6728C117.531 46.208 117.636 45.7081 117.64 45.2023C117.645 44.6965 117.548 44.1949 117.357 43.7268C117.165 43.2586 116.882 42.8333 116.525 42.4756C116.167 42.1179 115.742 41.8351 115.274 41.6435C114.805 41.452 114.304 41.3556 113.798 41.36C113.292 41.3644 112.792 41.4695 112.328 41.6691C111.863 41.8688 111.443 42.159 111.091 42.5228L93.9489 59.665C92.9896 56.5826 91.0697 53.8878 88.4699 51.9741C85.87 50.0604 82.7263 49.0281 79.4981 49.0281C76.2698 49.0281 73.1262 50.0604 70.5263 51.9741C67.9265 53.8878 66.0066 56.5826 65.0472 59.665L47.9088 42.5228C47.1945 41.8087 46.2257 41.4075 45.2156 41.4075C44.2055 41.4075 43.2368 41.8087 42.5224 42.5228C41.8082 43.2372 41.4071 44.2059 41.4071 45.216C41.4071 46.2262 41.8082 47.1949 42.5224 47.9093L64.2625 69.6494V89.3515L42.5224 111.092C41.8082 111.806 41.4071 112.775 41.4071 113.785C41.4071 114.795 41.8082 115.764 42.5224 116.478C43.2368 117.192 44.2055 117.593 45.2156 117.593C46.2257 117.593 47.1945 117.192 47.9088 116.478L65.051 99.3358C66.0104 102.418 67.9303 105.113 70.5301 107.027C73.13 108.94 76.2737 109.973 79.5019 109.973C82.7301 109.973 85.8738 108.94 88.4737 107.027C91.0735 105.113 92.9934 102.418 93.9528 99.3358L111.095 116.478C111.813 117.172 112.776 117.556 113.774 117.547C114.773 117.539 115.729 117.138 116.435 116.432C117.141 115.725 117.542 114.77 117.551 113.771C117.559 112.772 117.175 111.81 116.481 111.092L94.7375 89.3515ZM87.1187 94.7379C87.1187 96.7585 86.316 98.6964 84.8873 100.125C83.4585 101.554 81.5206 102.357 79.5 102.357C77.4794 102.357 75.5415 101.554 74.1127 100.125C72.6839 98.6964 71.8812 96.7585 71.8812 94.7379V64.2629C71.8812 62.2423 72.6839 60.3044 74.1127 58.8757C75.5415 57.4469 77.4794 56.6442 79.5 56.6442C81.5206 56.6442 83.4585 57.4469 84.8873 58.8757C86.316 60.3044 87.1187 62.2423 87.1187 64.2629V94.7379Z" fill="white"/>
<defs>
<linearGradient id="paint0_linear_2372_162" x1="0" y1="79.5" x2="159" y2="79.5" gradientUnits="userSpaceOnUse">
<stop offset="1"/>
</linearGradient>
</defs>
</svg>
