<svg width="48" height="48" viewBox="0 0 48 48" fill="none" xmlns="http://www.w3.org/2000/svg">
<path d="M14.76 42.0199C14.9922 42.2527 15.2681 42.4375 15.5718 42.5635C15.8756 42.6895 16.2012 42.7544 16.53 42.7544C16.8588 42.7544 17.1844 42.6895 17.4882 42.5635C17.7919 42.4375 18.0678 42.2527 18.3 42.0199L34.92 25.3999C35.1054 25.2149 35.2525 24.9951 35.3529 24.7532C35.4532 24.5112 35.5049 24.2519 35.5049 23.9899C35.5049 23.728 35.4532 23.4686 35.3529 23.2267C35.2525 22.9847 35.1054 22.765 34.92 22.5799L18.3 5.95992C17.32 4.97992 15.74 4.97992 14.76 5.95992C13.78 6.93992 13.78 8.51992 14.76 9.49992L29.24 23.9999L14.74 38.4999C13.78 39.4599 13.78 41.0599 14.76 42.0199Z" fill="white"/>
</svg>
