<svg width="530" height="106" viewBox="0 0 530 106" fill="none" xmlns="http://www.w3.org/2000/svg">
<path d="M23.1829 54.5187V61C16.9558 61 11.6183 58.8078 7.1703 54.4234C2.7859 49.9754 0.593693 44.6379 0.593693 38.4108V3.81207H7.07499V37.8389H7.1703C7.1703 37.8389 7.13853 37.9342 7.07499 38.1248C7.07499 38.2519 7.07499 38.3472 7.07499 38.4108C7.07499 42.8587 8.63177 46.6712 11.7453 49.8484C14.9224 52.9619 18.735 54.5187 23.1829 54.5187ZM74.1889 15.7262H80.6702V61H74.1889V54.2328C69.7409 58.7443 64.3716 61 58.081 61C51.8538 61 46.5163 58.8078 42.0683 54.4234C37.6839 49.9754 35.4917 44.6379 35.4917 38.4108C35.4917 32.1836 37.6839 26.8779 42.0683 22.4935C46.5163 18.0455 51.8538 15.8215 58.081 15.8215C64.3716 15.8215 69.7409 18.0773 74.1889 22.5888V15.7262ZM46.6434 49.8484C49.8205 52.9619 53.633 54.5187 58.081 54.5187C62.5289 54.5187 66.3097 52.9619 69.4232 49.8484C72.6003 46.6712 74.1889 42.8587 74.1889 38.4108C74.1889 33.9628 72.6003 30.1821 69.4232 27.0685C66.3097 23.8914 62.5289 22.3028 58.081 22.3028C53.633 22.3028 49.8205 23.8914 46.6434 27.0685C43.5298 30.1821 41.973 33.9628 41.973 38.4108C41.973 42.8587 43.5298 46.6712 46.6434 49.8484ZM105.803 22.1122C104.024 22.1122 102.499 22.7476 101.228 24.0185C99.9572 25.2893 99.3218 26.8143 99.3218 28.5935C99.3218 30.3727 99.9572 31.8977 101.228 33.1685C102.499 34.4394 104.024 35.0748 105.803 35.0748H125.056C128.615 35.0748 131.665 36.3456 134.206 38.8873C136.748 41.429 138.019 44.479 138.019 48.0374C138.019 51.5958 136.748 54.6458 134.206 57.1875C131.665 59.7292 128.615 61 125.056 61H92.8405V54.5187H125.056C126.836 54.5187 128.361 53.8833 129.631 52.6124C130.902 51.3416 131.538 49.8166 131.538 48.0374C131.538 46.2582 130.902 44.7332 129.631 43.4624C128.361 42.1915 126.836 41.5561 125.056 41.5561H105.803C102.245 41.5561 99.1947 40.2853 96.653 37.7436C94.1113 35.2019 92.8405 32.1519 92.8405 28.5935C92.8405 24.9716 94.1113 21.8898 96.653 19.3481C99.1947 16.8064 102.245 15.5356 105.803 15.5356H138.019V22.1122H105.803ZM172.89 54.5187C176.131 54.5187 179.054 53.6291 181.659 51.8499C184.328 50.0708 186.298 47.7515 187.568 44.8921H194.526C193.128 49.5942 190.428 53.4703 186.425 56.5203C182.422 59.5068 177.91 61 172.89 61C166.663 61 161.326 58.8078 156.878 54.4234C152.493 49.9754 150.301 44.6379 150.301 38.4108C150.301 32.1836 152.493 26.8779 156.878 22.4935C161.326 18.0455 166.663 15.8215 172.89 15.8215C179.117 15.8215 184.423 18.0455 188.808 22.4935C193.255 26.8779 195.479 32.1836 195.479 38.4108H188.998H156.782C156.782 42.8587 158.339 46.6712 161.453 49.8484C164.63 52.9619 168.442 54.5187 172.89 54.5187ZM181.659 24.9716C179.054 23.1924 176.131 22.3028 172.89 22.3028C169.65 22.3028 166.695 23.1924 164.026 24.9716C161.421 26.6872 159.483 28.9748 158.212 31.8342H187.568C186.298 28.9748 184.328 26.6872 181.659 24.9716ZM230.239 15.8215V22.3028C225.791 22.3028 221.978 23.8914 218.801 27.0685C215.688 30.1821 214.131 33.9628 214.131 38.4108V61H207.65V15.7262H214.131V22.5888C218.579 18.0773 223.948 15.8215 230.239 15.8215ZM307.344 14.8684C313.699 14.8684 319.131 17.1242 323.643 21.6356C328.154 26.1471 330.41 31.58 330.41 37.9342V61H326.026V37.9342C326.026 32.7873 324.183 28.4029 320.498 24.781C316.876 21.0955 312.491 19.2528 307.344 19.2528C302.197 19.2528 297.781 21.0955 294.096 24.781C290.474 28.4029 288.663 32.7873 288.663 37.9342V61H284.279V37.9342C284.279 32.7873 282.468 28.4029 278.846 24.781C275.224 21.0955 270.839 19.2528 265.692 19.2528C260.546 19.2528 256.129 21.0955 252.444 24.781C248.822 28.4029 247.011 32.7873 247.011 37.9342V61H242.627V14.8684H247.011V24.3997C249.172 21.4768 251.872 19.1575 255.113 17.4419C258.353 15.7262 261.88 14.8684 265.692 14.8684C270.204 14.8684 274.334 16.0757 278.083 18.4903C281.832 20.9049 284.628 24.1138 286.471 28.1169C288.377 24.1138 291.205 20.9049 294.954 18.4903C298.703 16.0757 302.833 14.8684 307.344 14.8684ZM388.791 37.9342H384.407H347.139C347.139 43.0811 348.95 47.4973 352.572 51.1827C356.257 54.8046 360.674 56.6156 365.821 56.6156C369.633 56.6156 373.096 55.5354 376.21 53.3749C379.387 51.2145 381.674 48.4187 383.072 44.9874H387.743C386.218 49.6895 383.422 53.5338 379.355 56.5203C375.352 59.5068 370.84 61 365.821 61C359.466 61 354.033 58.7443 349.522 54.2328C345.01 49.7213 342.755 44.2884 342.755 37.9342C342.755 31.58 345.01 26.1471 349.522 21.6356C354.033 17.1242 359.466 14.8684 365.821 14.8684C372.175 14.8684 377.576 17.1242 382.024 21.6356C386.535 26.1471 388.791 31.58 388.791 37.9342ZM347.711 33.5498H383.93C382.913 29.4196 380.721 26.02 377.353 23.3513C373.986 20.619 370.11 19.2528 365.725 19.2528C361.404 19.2528 357.56 20.619 354.192 23.3513C350.825 26.02 348.664 29.4196 347.711 33.5498ZM444.104 24.3997V0.666733H448.488V61H444.104V51.4687C442.007 54.3916 439.307 56.7109 436.002 58.4265C432.762 60.1422 429.235 61 425.423 61C419.068 61 413.635 58.7443 409.124 54.2328C404.676 49.7213 402.452 44.2884 402.452 37.9342C402.452 31.58 404.676 26.1471 409.124 21.6356C413.635 17.1242 419.068 14.8684 425.423 14.8684C429.235 14.8684 432.762 15.7262 436.002 17.4419C439.307 19.1575 442.007 21.4768 444.104 24.3997ZM412.269 51.1827C415.955 54.8046 420.339 56.6156 425.423 56.6156C430.569 56.6156 434.954 54.8046 438.576 51.1827C442.261 47.4973 444.104 43.0811 444.104 37.9342C444.104 32.7873 442.261 28.4029 438.576 24.781C434.954 21.0955 430.569 19.2528 425.423 19.2528C420.339 19.2528 415.955 21.0955 412.269 24.781C408.647 28.4029 406.836 32.7873 406.836 37.9342C406.836 43.0811 408.647 47.4973 412.269 51.1827ZM462.995 61V14.8684H467.38V61H462.995ZM462.995 10.0074V5.62302H467.38V10.0074H462.995ZM520.713 24.3997V14.8684H525.098V61H520.713V51.4687C518.617 54.3916 515.916 56.7109 512.612 58.4265C509.371 60.1422 505.845 61 502.032 61C495.678 61 490.245 58.7443 485.733 54.2328C481.286 49.7213 479.062 44.2884 479.062 37.9342C479.062 31.58 481.286 26.1471 485.733 21.6356C490.245 17.1242 495.678 14.8684 502.032 14.8684C505.845 14.8684 509.371 15.7262 512.612 17.4419C515.916 19.1575 518.617 21.4768 520.713 24.3997ZM488.879 51.1827C492.564 54.8046 496.949 56.6156 502.032 56.6156C507.179 56.6156 511.563 54.8046 515.185 51.1827C518.871 47.4973 520.713 43.0811 520.713 37.9342C520.713 32.7873 518.871 28.4029 515.185 24.781C511.563 21.0955 507.179 19.2528 502.032 19.2528C496.949 19.2528 492.564 21.0955 488.879 24.781C485.257 28.4029 483.446 32.7873 483.446 37.9342C483.446 43.0811 485.257 47.4973 488.879 51.1827Z" fill="black"/>
<path d="M12.7963 99.2449C11.5727 99.2449 10.4421 99.0435 9.40435 98.6408C8.36663 98.2226 7.4683 97.6418 6.70937 96.8984C5.95044 96.1549 5.35413 95.2798 4.92046 94.2731C4.50227 93.2663 4.29318 92.1667 4.29318 90.9741C4.29318 89.7815 4.50227 88.6818 4.92046 87.675C5.35413 86.6683 5.95044 85.7932 6.70937 85.0497C7.48379 84.3063 8.38986 83.7332 9.42758 83.3305C10.4653 82.9123 11.596 82.7033 12.8195 82.7033C13.9967 82.7033 15.1041 82.9046 16.1418 83.3073C17.1795 83.6945 18.0546 84.2831 18.7671 85.073L17.6752 86.1649C17.0092 85.4834 16.2735 84.9955 15.4681 84.7013C14.6627 84.3915 13.7953 84.2366 12.866 84.2366C11.8902 84.2366 10.9842 84.407 10.1478 84.7477C9.31142 85.073 8.58346 85.5454 7.96393 86.1649C7.34439 86.769 6.85651 87.4814 6.50027 88.3023C6.15953 89.1077 5.98916 89.9983 5.98916 90.9741C5.98916 91.9498 6.15953 92.8482 6.50027 93.669C6.85651 94.4744 7.34439 95.1869 7.96393 95.8064C8.58346 96.4105 9.31142 96.8829 10.1478 97.2236C10.9842 97.5489 11.8902 97.7115 12.866 97.7115C13.7953 97.7115 14.6627 97.5566 15.4681 97.2469C16.2735 96.9371 17.0092 96.4415 17.6752 95.76L18.7671 96.8519C18.0546 97.6418 17.1795 98.2381 16.1418 98.6408C15.1041 99.0435 13.9889 99.2449 12.7963 99.2449ZM38.24 99.1055L45.6744 82.8427H47.3704L54.8048 99.1055H52.9927L46.1623 83.8417H46.8593L40.0289 99.1055H38.24ZM41.1673 94.761L41.6784 93.367H51.1341L51.6452 94.761H41.1673ZM76.3135 99.1055V82.8427H82.4004C83.7789 82.8427 84.9638 83.0672 85.955 83.5164C86.9463 83.9501 87.7052 84.5851 88.2318 85.4215C88.7739 86.2424 89.045 87.2414 89.045 88.4185C89.045 89.5646 88.7739 90.5559 88.2318 91.3922C87.7052 92.2131 86.9463 92.8482 85.955 93.2973C84.9638 93.7465 83.7789 93.9711 82.4004 93.9711H77.266L78.0327 93.1579V99.1055H76.3135ZM78.0327 93.2973L77.266 92.4609H82.354C83.9803 92.4609 85.2116 92.1125 86.048 91.4155C86.8998 90.703 87.3258 89.704 87.3258 88.4185C87.3258 87.1174 86.8998 86.1107 86.048 85.3982C85.2116 84.6858 83.9803 84.3295 82.354 84.3295H77.266L78.0327 83.5164V93.2973ZM114.196 99.1055V84.3295H108.481V82.8427H121.63V84.3295H115.915V99.1055H114.196ZM149.429 99.2449C147.354 99.2449 145.72 98.6486 144.527 97.456C143.335 96.2633 142.738 94.4977 142.738 92.1589V82.8427H144.457V92.0892C144.457 94.0098 144.891 95.427 145.758 96.3408C146.626 97.2546 147.849 97.7115 149.429 97.7115C151.025 97.7115 152.256 97.2546 153.123 96.3408C153.991 95.427 154.424 94.0098 154.424 92.0892V82.8427H156.097V92.1589C156.097 94.4977 155.501 96.2633 154.308 97.456C153.131 98.6486 151.505 99.2449 149.429 99.2449ZM180.096 99.1055V82.8427H186.183C187.561 82.8427 188.746 83.0672 189.738 83.5164C190.729 83.9501 191.488 84.5851 192.014 85.4215C192.556 86.2424 192.828 87.2414 192.828 88.4185C192.828 89.5646 192.556 90.5559 192.014 91.3922C191.488 92.2131 190.729 92.8482 189.738 93.2973C188.746 93.731 187.561 93.9478 186.183 93.9478H181.049L181.815 93.1579V99.1055H180.096ZM191.201 99.1055L187.019 93.2044H188.878L193.083 99.1055H191.201ZM181.815 93.2973L181.049 92.4842H186.137C187.763 92.4842 188.994 92.1279 189.83 91.4155C190.682 90.703 191.108 89.704 191.108 88.4185C191.108 87.1174 190.682 86.1107 189.83 85.3982C188.994 84.6858 187.763 84.3295 186.137 84.3295H181.049L181.815 83.5164V93.2973ZM215.704 99.1055V82.8427H217.423V99.1055H215.704ZM241.533 99.1055V82.8427H242.95L254.171 96.9681H253.428V82.8427H255.124V99.1055H253.707L242.508 84.98H243.252V99.1055H241.533ZM286.383 99.2449C285.144 99.2449 283.997 99.0435 282.944 98.6408C281.906 98.2226 281 97.6418 280.226 96.8984C279.467 96.1549 278.871 95.2798 278.437 94.2731C278.019 93.2663 277.81 92.1667 277.81 90.9741C277.81 89.7815 278.019 88.6818 278.437 87.675C278.871 86.6683 279.475 85.7932 280.249 85.0497C281.024 84.3063 281.93 83.7332 282.967 83.3305C284.021 82.9123 285.167 82.7033 286.406 82.7033C287.645 82.7033 288.776 82.8969 289.798 83.2841C290.836 83.6713 291.718 84.2598 292.446 85.0497L291.378 86.1417C290.696 85.4602 289.945 84.9723 289.124 84.678C288.303 84.3837 287.42 84.2366 286.476 84.2366C285.469 84.2366 284.54 84.407 283.688 84.7477C282.851 85.073 282.116 85.5454 281.481 86.1649C280.861 86.769 280.373 87.4814 280.017 88.3023C279.676 89.1077 279.506 89.9983 279.506 90.9741C279.506 91.9343 279.676 92.8249 280.017 93.6458C280.373 94.4667 280.861 95.1869 281.481 95.8064C282.116 96.4105 282.851 96.8829 283.688 97.2236C284.54 97.5489 285.461 97.7115 286.452 97.7115C287.382 97.7115 288.257 97.5721 289.078 97.2933C289.914 97.0145 290.681 96.5421 291.378 95.8761L292.353 97.1772C291.579 97.8587 290.673 98.3775 289.635 98.7337C288.597 99.0745 287.513 99.2449 286.383 99.2449ZM290.704 96.9681V90.9741H292.353V97.1772L290.704 96.9681ZM345.42 99.2449C344.212 99.2449 343.051 99.0513 341.935 98.664C340.836 98.2614 339.984 97.7502 339.38 97.1307L340.054 95.8064C340.627 96.364 341.393 96.8364 342.354 97.2236C343.329 97.5953 344.352 97.7812 345.42 97.7812C346.443 97.7812 347.271 97.6573 347.906 97.4095C348.557 97.1462 349.029 96.7977 349.323 96.364C349.633 95.9303 349.788 95.4502 349.788 94.9236C349.788 94.2886 349.602 93.7775 349.23 93.3903C348.874 93.003 348.402 92.701 347.813 92.4842C347.225 92.2519 346.574 92.0505 345.862 91.8801C345.149 91.7098 344.437 91.5316 343.724 91.3458C343.012 91.1444 342.354 90.8811 341.75 90.5559C341.161 90.2306 340.681 89.8047 340.309 89.2781C339.953 88.736 339.775 88.0313 339.775 87.1639C339.775 86.3585 339.984 85.6228 340.402 84.9568C340.836 84.2753 341.494 83.7332 342.377 83.3305C343.26 82.9123 344.39 82.7033 345.769 82.7033C346.683 82.7033 347.589 82.8349 348.487 83.0982C349.385 83.346 350.16 83.6945 350.81 84.1437L350.229 85.5144C349.532 85.0497 348.789 84.709 347.999 84.4922C347.225 84.2753 346.473 84.1669 345.746 84.1669C344.77 84.1669 343.964 84.2986 343.329 84.5619C342.694 84.8252 342.222 85.1814 341.912 85.6306C341.618 86.0642 341.471 86.5599 341.471 87.1174C341.471 87.7525 341.649 88.2636 342.005 88.6508C342.377 89.038 342.857 89.34 343.446 89.5569C344.05 89.7737 344.708 89.9673 345.42 90.1377C346.133 90.3081 346.837 90.4939 347.534 90.6953C348.247 90.8966 348.897 91.1599 349.486 91.4852C350.09 91.7949 350.57 92.2131 350.926 92.7397C351.298 93.2663 351.484 93.9556 351.484 94.8074C351.484 95.5973 351.267 96.333 350.833 97.0145C350.4 97.6805 349.734 98.2226 348.835 98.6408C347.953 99.0435 346.814 99.2449 345.42 99.2449ZM374.048 99.1055V82.8427H380.135C381.514 82.8427 382.699 83.0672 383.69 83.5164C384.681 83.9501 385.44 84.5851 385.967 85.4215C386.509 86.2424 386.78 87.2414 386.78 88.4185C386.78 89.5646 386.509 90.5559 385.967 91.3922C385.44 92.2131 384.681 92.8482 383.69 93.2973C382.699 93.7465 381.514 93.9711 380.135 93.9711H375.001L375.768 93.1579V99.1055H374.048ZM375.768 93.2973L375.001 92.4609H380.089C381.715 92.4609 382.946 92.1125 383.783 91.4155C384.635 90.703 385.061 89.704 385.061 88.4185C385.061 87.1174 384.635 86.1107 383.783 85.3982C382.946 84.6858 381.715 84.3295 380.089 84.3295H375.001L375.768 83.5164V93.2973ZM405.897 99.1055L413.331 82.8427H415.027L422.462 99.1055H420.649L413.819 83.8417H414.516L407.686 99.1055H405.897ZM408.824 94.761L409.335 93.367H418.791L419.302 94.761H408.824ZM450.806 99.2449C449.582 99.2449 448.452 99.0435 447.414 98.6408C446.376 98.2226 445.478 97.6418 444.719 96.8984C443.96 96.1549 443.364 95.2798 442.93 94.2731C442.512 93.2663 442.303 92.1667 442.303 90.9741C442.303 89.7815 442.512 88.6818 442.93 87.675C443.364 86.6683 443.96 85.7932 444.719 85.0497C445.494 84.3063 446.4 83.7332 447.437 83.3305C448.475 82.9123 449.606 82.7033 450.829 82.7033C452.006 82.7033 453.114 82.9046 454.152 83.3073C455.189 83.6945 456.064 84.2831 456.777 85.073L455.685 86.1649C455.019 85.4834 454.283 84.9955 453.478 84.7013C452.672 84.3915 451.805 84.2366 450.876 84.2366C449.9 84.2366 448.994 84.407 448.158 84.7477C447.321 85.073 446.593 85.5454 445.974 86.1649C445.354 86.769 444.866 87.4814 444.51 88.3023C444.169 89.1077 443.999 89.9983 443.999 90.9741C443.999 91.9498 444.169 92.8482 444.51 93.669C444.866 94.4744 445.354 95.1869 445.974 95.8064C446.593 96.4105 447.321 96.8829 448.158 97.2236C448.994 97.5489 449.9 97.7115 450.876 97.7115C451.805 97.7115 452.672 97.5566 453.478 97.2469C454.283 96.9371 455.019 96.4415 455.685 95.76L456.777 96.8519C456.064 97.6418 455.189 98.2381 454.152 98.6408C453.114 99.0435 451.999 99.2449 450.806 99.2449ZM480.794 90.1145H489.39V91.5781H480.794V90.1145ZM480.979 97.6186H490.76V99.1055H479.26V82.8427H490.412V84.3295H480.979V97.6186ZM518.104 99.2449C516.896 99.2449 515.734 99.0513 514.619 98.664C513.519 98.2614 512.667 97.7502 512.063 97.1307L512.737 95.8064C513.31 96.364 514.077 96.8364 515.037 97.2236C516.013 97.5953 517.035 97.7812 518.104 97.7812C519.126 97.7812 519.955 97.6573 520.59 97.4095C521.24 97.1462 521.713 96.7977 522.007 96.364C522.317 95.9303 522.472 95.4502 522.472 94.9236C522.472 94.2886 522.286 93.7775 521.914 93.3903C521.558 93.003 521.085 92.701 520.497 92.4842C519.908 92.2519 519.258 92.0505 518.545 91.8801C517.833 91.7098 517.12 91.5316 516.408 91.3458C515.695 91.1444 515.037 90.8811 514.433 90.5559C513.845 90.2306 513.364 89.8047 512.993 89.2781C512.636 88.736 512.458 88.0313 512.458 87.1639C512.458 86.3585 512.667 85.6228 513.086 84.9568C513.519 84.2753 514.178 83.7332 515.06 83.3305C515.943 82.9123 517.074 82.7033 518.452 82.7033C519.366 82.7033 520.272 82.8349 521.171 83.0982C522.069 83.346 522.843 83.6945 523.494 84.1437L522.913 85.5144C522.216 85.0497 521.473 84.709 520.683 84.4922C519.908 84.2753 519.157 84.1669 518.429 84.1669C517.453 84.1669 516.648 84.2986 516.013 84.5619C515.378 84.8252 514.905 85.1814 514.596 85.6306C514.301 86.0642 514.154 86.5599 514.154 87.1174C514.154 87.7525 514.332 88.2636 514.689 88.6508C515.06 89.038 515.54 89.34 516.129 89.5569C516.733 89.7737 517.391 89.9673 518.104 90.1377C518.816 90.3081 519.521 90.4939 520.218 90.6953C520.93 90.8966 521.581 91.1599 522.17 91.4852C522.774 91.7949 523.254 92.2131 523.61 92.7397C523.982 93.2663 524.168 93.9556 524.168 94.8074C524.168 95.5973 523.951 96.333 523.517 97.0145C523.083 97.6805 522.417 98.2226 521.519 98.6408C520.636 99.0435 519.498 99.2449 518.104 99.2449Z" fill="black"/>
</svg>
