<svg width="40" height="41" viewBox="0 0 40 41" fill="none" xmlns="http://www.w3.org/2000/svg">
<path fill-rule="evenodd" clip-rule="evenodd" d="M6 32.0714C6 30.8879 6.95938 29.9286 8.14286 29.9286H33.8571C35.0406 29.9286 36 30.8879 36 32.0714C36 33.2549 35.0406 34.2143 33.8571 34.2143H8.14286C6.95938 34.2143 6 33.2549 6 32.0714ZM6 10.6429C6 9.45938 6.95938 8.5 8.14286 8.5H33.8571C35.0406 8.5 36 9.45938 36 10.6429C36 11.8263 35.0406 12.7857 33.8571 12.7857H8.14286C6.95938 12.7857 6 11.8263 6 10.6429ZM6 21.3571C6 20.1737 6.95938 19.2143 8.14286 19.2143H21C22.1835 19.2143 23.1429 20.1737 23.1429 21.3571C23.1429 22.5406 22.1835 23.5 21 23.5H8.14286C6.95938 23.5 6 22.5406 6 21.3571Z" fill="black"/>
</svg>
