<svg width="159" height="159" viewBox="0 0 159 159" fill="none" xmlns="http://www.w3.org/2000/svg">
<g clip-path="url(#clip0_2372_163)">
<path d="M159 79.5C159 123.407 123.407 159 79.5 159C35.5928 159 0 123.407 0 79.5C0 35.5928 35.5928 0 79.5 0C123.407 0 159 35.5928 159 79.5Z" fill="url(#paint0_linear_2372_163)"/>
<path d="M118.872 128.564H40.1285C30.1594 128.564 22.0488 120.452 22.0488 110.483V59.033C22.0488 49.0628 30.1594 40.9522 40.1285 40.9522H46.821C48.6224 40.9522 50.2443 39.8143 50.8557 38.1196L52.4048 33.8314C54.3457 28.4563 59.4879 24.8462 65.2027 24.8462H93.7839C99.6115 24.8462 104.788 28.5521 106.664 34.068L108.018 38.0444C108.61 39.784 110.242 40.9522 112.08 40.9522H118.872C128.841 40.9522 136.951 49.0628 136.951 59.033V88.1128C136.951 90.6858 134.866 92.771 132.293 92.771C129.72 92.771 127.635 90.6858 127.635 88.1128V59.033C127.635 54.2001 123.703 50.2686 118.872 50.2686H112.08C106.252 50.2686 101.076 46.5626 99.1991 41.0468L97.8453 37.0691C97.2533 35.3308 95.6205 34.1626 93.7839 34.1626H65.2027C63.4001 34.1626 61.7794 35.3005 61.168 36.9951L59.6189 41.2833C57.678 46.6585 52.5358 50.2686 46.821 50.2686H40.1297C35.2968 50.2686 31.3652 54.2001 31.3652 59.033V110.483C31.3652 115.316 35.2968 119.248 40.1297 119.248H118.872C123.704 119.248 127.635 115.316 127.635 110.483C127.635 107.911 129.721 105.825 132.293 105.825C134.866 105.825 136.951 107.911 136.951 110.483C136.951 120.452 128.841 128.564 118.872 128.564Z" fill="white"/>
<path d="M79.7232 110.668C64.2031 110.668 51.5775 98.0408 51.5775 82.5207C51.5775 67.0007 64.2031 54.375 79.7232 54.375C95.2433 54.375 107.87 67.0007 107.87 82.5207C107.87 98.0408 95.2433 110.668 79.7232 110.668ZM79.7232 63.6914C69.3405 63.6914 60.8939 72.138 60.8939 82.5219C60.8939 92.9046 69.3405 101.351 79.7232 101.351C90.1059 101.351 98.5537 92.9046 98.5537 82.5219C98.5537 72.138 90.1071 63.6914 79.7232 63.6914Z" fill="white"/>
</g>
<defs>
<linearGradient id="paint0_linear_2372_163" x1="0" y1="79.5" x2="159" y2="79.5" gradientUnits="userSpaceOnUse">
<stop offset="1"/>
</linearGradient>
<clipPath id="clip0_2372_163">
<rect width="159" height="159" fill="white"/>
</clipPath>
</defs>
</svg>
