<svg width="159" height="159" viewBox="0 0 159 159" fill="none" xmlns="http://www.w3.org/2000/svg">
<g clip-path="url(#clip0_2372_155)">
<path d="M159 79.5C159 123.407 123.407 159 79.5 159C35.5928 159 0 123.407 0 79.5C0 35.5928 35.5928 0 79.5 0C123.407 0 159 35.5928 159 79.5Z" fill="url(#paint0_linear_2372_155)"/>
<path d="M136.33 78.9471C138.903 78.9471 140.988 76.8618 140.988 74.2889V61.0421C140.988 55.6488 137.99 50.8026 133.164 48.3958C128.337 45.9891 122.662 46.5083 118.354 49.7533L118.232 49.8455L103.565 62.4735V56.5246C103.565 46.1201 95.1001 37.6553 84.6956 37.6553H38.7444C28.3398 37.6553 19.875 46.1201 19.875 56.5246V102.476C19.875 112.88 28.3398 121.345 38.7444 121.345H84.6956C95.1001 121.345 103.565 112.88 103.565 102.476V96.7635L118.117 109.292L118.354 109.484C120.865 111.375 123.84 112.341 126.841 112.341C128.989 112.341 131.15 111.846 133.164 110.841C137.99 108.434 140.988 103.588 140.988 98.1949C140.988 95.622 138.903 93.5367 136.33 93.5367C133.757 93.5367 131.672 95.622 131.672 98.1949C131.672 100.061 130.675 101.672 129.006 102.505C127.374 103.318 125.535 103.172 124.062 102.118L103.565 84.4702V74.7681L124.062 57.119C125.536 56.0649 127.374 55.9193 129.006 56.7321C130.675 57.5655 131.672 59.1764 131.672 61.0421V74.2889C131.672 76.8618 133.757 78.9471 136.33 78.9471ZM94.2486 102.476C94.2486 107.743 89.9628 112.029 84.6944 112.029H38.7444C33.4772 112.029 29.1914 107.743 29.1914 102.476V56.5246C29.1914 51.2575 33.4772 46.9717 38.7444 46.9717H84.6956C89.9628 46.9717 94.2486 51.2575 94.2486 56.5246V102.476Z" fill="white"/>
</g>
<defs>
<linearGradient id="paint0_linear_2372_155" x1="0" y1="79.5" x2="159" y2="79.5" gradientUnits="userSpaceOnUse">
<stop offset="1"/>
</linearGradient>
<clipPath id="clip0_2372_155">
<rect width="159" height="159" fill="white"/>
</clipPath>
</defs>
</svg>
