<svg width="20" height="20" viewBox="0 0 20 20" fill="none" xmlns="http://www.w3.org/2000/svg">
<g clip-path="url(#clip0_2336_112)">
<path d="M16.372 14.4594H16.2466V14.2051H16.4052C16.4872 14.2051 16.581 14.2187 16.581 14.3258C16.581 14.4492 16.4864 14.4594 16.372 14.4594Z" fill="black"/>
<path d="M16.3641 13.8785C16.0227 13.884 15.7508 14.1656 15.7562 14.5066C15.7621 14.848 16.0434 15.1203 16.3848 15.1145H16.4008C16.7348 15.107 16.9996 14.8305 16.9926 14.4965V14.4863C16.9867 14.1449 16.7055 13.8727 16.3641 13.8785ZM16.5879 14.8723L16.382 14.5484L16.3789 14.5445H16.2461V14.8723H16.1383V14.1203H16.4254C16.6031 14.1203 16.6898 14.1891 16.6898 14.3324C16.6898 14.3367 16.6902 14.341 16.6898 14.3453C16.6891 14.4512 16.6215 14.5371 16.4816 14.5371L16.7035 14.8723H16.5879ZM16.3641 13.8785C16.0227 13.884 15.7508 14.1656 15.7562 14.5066C15.7621 14.848 16.0434 15.1203 16.3848 15.1145H16.4008C16.7348 15.107 16.9996 14.8305 16.9926 14.4965V14.4863C16.9867 14.1449 16.7055 13.8727 16.3641 13.8785ZM16.5879 14.8723L16.382 14.5484L16.3789 14.5445H16.2461V14.8723H16.1383V14.1203H16.4254C16.6031 14.1203 16.6898 14.1891 16.6898 14.3324C16.6898 14.3367 16.6902 14.341 16.6898 14.3453C16.6891 14.4512 16.6215 14.5371 16.4816 14.5371L16.7035 14.8723H16.5879ZM10 0C4.47734 0 0 4.47734 0 10C0 15.5227 4.47734 20 10 20C15.5227 20 20 15.5227 20 10C20 4.47734 15.5227 0 10 0ZM15.2992 14.3762C15.2934 14.7934 14.9508 15.1273 14.5332 15.1223H5.72383C5.30742 15.1266 4.96602 14.7926 4.96094 14.3762V5.53008C4.96602 5.11367 5.30742 4.78008 5.72383 4.78477H14.5332V4.78438C14.9504 4.77891 15.2934 5.11211 15.2992 5.5293V14.3762ZM16.3984 15.1953C16.009 15.1988 15.6902 14.8863 15.6867 14.4973C15.6828 14.1078 15.9953 13.7891 16.3848 13.7855H16.3984C16.7824 13.7891 17.093 14.0996 17.0965 14.4836C17.1004 14.873 16.7875 15.1914 16.3984 15.1953ZM16.3641 13.8785C16.0227 13.884 15.7508 14.1656 15.7562 14.5066C15.7621 14.848 16.0434 15.1203 16.3848 15.1145H16.4008C16.7348 15.107 16.9996 14.8305 16.9926 14.4965V14.4863C16.9867 14.1449 16.7055 13.8727 16.3641 13.8785ZM16.5879 14.8723L16.382 14.5484L16.3789 14.5445H16.2461V14.8723H16.1383V14.1203H16.4254C16.6031 14.1203 16.6898 14.1891 16.6898 14.3324C16.6898 14.3367 16.6902 14.341 16.6898 14.3453C16.6891 14.4512 16.6215 14.5371 16.4816 14.5371L16.7035 14.8723H16.5879ZM11.9316 8.53672C11.3379 8.51484 10.7805 8.82109 10.4805 9.33359H10.4602V8.65977H8.98945V13.5926H10.5215V11.1523C10.5215 10.5086 10.6434 9.88555 11.441 9.88555C12.2277 9.88555 12.2379 10.6219 12.2379 11.1937V13.593H13.7695L13.7703 10.8867C13.7703 9.5582 13.484 8.53672 11.9316 8.53672ZM6.49375 13.593H8.02695V8.65977H6.49375V13.593ZM7.26094 6.20742C6.76992 6.20742 6.37187 6.60547 6.37187 7.09648C6.37187 7.5875 6.77031 7.98516 7.26094 7.98516C7.75195 7.98516 8.15 7.58711 8.15 7.09609C8.14961 6.60508 7.75156 6.20742 7.26094 6.20742Z" fill="black"/>
</g>
<defs>
<clipPath id="clip0_2336_112">
<rect width="20" height="20" fill="white"/>
</clipPath>
</defs>
</svg>
