<svg width="20" height="20" viewBox="0 0 20 20" fill="none" xmlns="http://www.w3.org/2000/svg">
<g clip-path="url(#clip0_2336_104)">
<path d="M10 0C4.47734 0 0 4.47734 0 10C0 15.5227 4.47734 20 10 20C15.5227 20 20 15.5227 20 10C20 4.47734 15.5227 0 10 0ZM10.1309 15.7187H10.1285C9.15 15.7187 8.18867 15.473 7.33516 15.0074L4.23594 15.8203L5.06562 12.791C4.55391 11.9047 4.28477 10.8988 4.28516 9.86875C4.28633 6.6457 6.90859 4.02344 10.1309 4.02344C11.6945 4.02422 13.1625 4.63281 14.266 5.73789C15.3695 6.84258 15.9773 8.31133 15.9766 9.87344C15.9754 13.0965 13.3527 15.7187 10.1309 15.7187ZM10.1328 5.01055C7.45273 5.01055 5.27305 7.19023 5.27227 9.86914C5.27188 10.7871 5.52852 11.6812 6.01484 12.4547L6.13047 12.6387L5.63984 14.4316L7.47852 13.9492L7.65586 14.0543C8.40195 14.4973 9.25703 14.7313 10.1289 14.7316H10.1309C12.809 14.7316 14.9887 12.552 14.9895 9.87305C14.9902 8.57461 14.4852 7.35391 13.568 6.43555C12.6504 5.51719 11.4305 5.01133 10.1328 5.01055ZM12.9906 11.9578C12.8691 12.2992 12.2855 12.6105 12.0047 12.6523C11.7531 12.6902 11.4348 12.7059 11.0848 12.5945C10.8727 12.5273 10.6008 12.4375 10.2523 12.2871C8.78711 11.6543 7.83008 10.1789 7.75703 10.0812C7.68398 9.98398 7.16055 9.28945 7.16055 8.57031C7.16055 7.85156 7.53789 7.49805 7.67187 7.35195C7.80586 7.20586 7.96406 7.16914 8.06133 7.16914C8.15859 7.16914 8.25625 7.16992 8.34141 7.17422C8.43086 7.17891 8.55117 7.14023 8.66992 7.425C8.79141 7.71758 9.08359 8.43633 9.12031 8.50977C9.15664 8.58281 9.18125 8.66797 9.13242 8.76562C9.08359 8.86289 9.05938 8.92383 8.98633 9.00898C8.91328 9.09453 8.83281 9.19961 8.76719 9.26523C8.69414 9.33789 8.61797 9.4168 8.70313 9.56328C8.78828 9.70938 9.08164 10.1875 9.51563 10.575C10.0738 11.0727 10.5441 11.227 10.6902 11.3C10.8363 11.373 10.9215 11.3609 11.0066 11.2633C11.0922 11.166 11.3719 10.8367 11.4691 10.6906C11.5668 10.5445 11.6641 10.5687 11.798 10.6176C11.9316 10.6664 12.65 11.0195 12.7961 11.093C12.9422 11.166 13.0395 11.2023 13.0758 11.2633C13.1125 11.3242 13.1125 11.6168 12.9906 11.9578Z" fill="black"/>
</g>
<defs>
<clipPath id="clip0_2336_104">
<rect width="20" height="20" fill="white"/>
</clipPath>
</defs>
</svg>
